<svg width="18" height="18" viewBox="0 0 18 18" fill="none" xmlns="http://www.w3.org/2000/svg">
<g clip-path="url(#clip0_210_225)">
<path d="M3.38777 9.21584L9.35296 1.92505C9.49881 1.74678 9.74559 1.68755 9.95648 1.78016C10.1674 1.87278 10.2907 2.09456 10.2581 2.32258L9.63039 6.71651C9.62073 6.78448 9.64101 6.85332 9.68601 6.90519C9.73091 6.95706 9.79618 6.98685 9.86487 6.98685L13.7607 6.98684C13.9428 6.98681 14.1127 6.98698 14.2482 6.99928C14.3802 7.01124 14.5885 7.04079 14.7651 7.1827C14.9771 7.353 15.0993 7.61096 15.0969 7.8828C15.0949 8.10932 14.9859 8.2893 14.9116 8.39897C14.8352 8.51174 14.7278 8.64329 14.6124 8.78419L8.64729 16.075C8.50144 16.2533 8.25467 16.3125 8.04378 16.2198C7.8329 16.1273 7.70955 15.9055 7.74213 15.6774L8.36983 11.2835C8.37954 11.2155 8.35927 11.1467 8.31429 11.0948C8.2693 11.0429 8.20403 11.0132 8.13537 11.0132H4.23951C4.05743 11.0132 3.8876 11.013 3.75196 11.0008C3.62004 10.9887 3.41168 10.9592 3.2351 10.8174C3.0232 10.647 2.90096 10.389 2.90334 10.1172C2.90533 9.89073 3.0144 9.71073 3.08867 9.60103C3.16505 9.48829 3.27244 9.35674 3.38777 9.21584Z" fill="url(#paint0_linear_210_225)"/>
<path d="M3.08867 9.60103C3.0144 9.71073 2.90533 9.89073 2.90334 10.1172C2.90096 10.389 3.0232 10.647 3.2351 10.8174C3.41168 10.9592 3.62004 10.9887 3.75196 11.0008C3.8876 11.013 4.05743 11.0132 4.23951 11.0132H8.13537C8.20403 11.0132 8.2693 11.0429 8.31429 11.0948C8.35927 11.1467 8.37954 11.2155 8.36983 11.2835L7.74213 15.6774C7.70955 15.9055 7.8329 16.1273 8.04378 16.2198C8.25467 16.3125 8.50144 16.2533 8.64729 16.075L14.6124 8.78419C14.7278 8.64329 14.8352 8.51174 14.9116 8.39897C14.9859 8.2893 15.0949 8.10932 15.0969 7.8828C15.0993 7.61096 14.9771 7.353 14.7651 7.1827C14.5885 7.04079 14.3802 7.01124 14.2482 6.99928C14.1127 6.98698 13.9428 6.98681 13.7607 6.98684L9.86487 6.98685C9.79618 6.98685 9.73091 6.95705 9.68601 6.90519C9.64101 6.85332 9.62073 6.78448 9.63039 6.71651L10.2581 2.32258C10.2907 2.09456 10.1674 1.87278 9.95648 1.78016C9.74559 1.68755 9.49881 1.74678 9.35296 1.92505L3.38777 9.21584C3.27244 9.35674 3.16505 9.48829 3.08867 9.60103ZM3.08867 9.60103L2.89258 9.46823" stroke="url(#paint1_linear_210_225)" stroke-width="0.473684" stroke-linecap="round" stroke-linejoin="round"/>
</g>
<defs>
<linearGradient id="paint0_linear_210_225" x1="11.9555" y1="14.9204" x2="6.88648" y2="8.92169" gradientUnits="userSpaceOnUse">
<stop stop-color="#6169E5" stop-opacity="0.91"/>
<stop offset="1" stop-color="#6169E5" stop-opacity="0.4"/>
</linearGradient>
<linearGradient id="paint1_linear_210_225" x1="17.0223" y1="10.8335" x2="8.65873" y2="15.941" gradientUnits="userSpaceOnUse">
<stop stop-color="#C6B0FF"/>
<stop offset="1" stop-color="white" stop-opacity="0.14"/>
</linearGradient>
<clipPath id="clip0_210_225">
<rect width="18" height="18" fill="white"/>
</clipPath>
</defs>
</svg>
