<svg width="151" height="30" viewBox="0 0 151 30" fill="none" xmlns="http://www.w3.org/2000/svg">
<g clip-path="url(#clip0_22_548)">
<g clip-path="url(#clip1_22_548)">
<mask id="mask0_22_548" style="mask-type:luminance" maskUnits="userSpaceOnUse" x="1" y="0" width="150" height="30">
<path d="M150.559 0H1.41553V30H150.559V0Z" fill="white"/>
</mask>
<g mask="url(#mask0_22_548)">
<mask id="mask1_22_548" style="mask-type:luminance" maskUnits="userSpaceOnUse" x="1" y="0" width="149" height="30">
<path d="M149.797 0.00195312H1.79834V29.1448H149.797V0.00195312Z" fill="white"/>
</mask>
<g mask="url(#mask1_22_548)">
<path d="M18.9734 5.48337L10.3859 10.9648L18.9734 16.4462L10.3859 21.9276L1.79834 16.4005L10.3859 10.9191L1.79834 5.48337L10.3859 0.00195312L18.9734 5.48337ZM10.3402 23.6634L18.9278 18.182L27.5153 23.6634L18.9278 29.1448L10.3402 23.6634ZM18.9734 16.4005L27.5609 10.9191L18.9734 5.48337L27.5153 0.00195312L36.1029 5.48337L27.5153 10.9648L36.1029 16.4462L27.5153 21.9276L18.9734 16.4005Z" fill="#393E46"/>
<path d="M42.8179 5.4832H49.761C54.1918 5.4832 57.8461 8.04118 57.8461 13.8881V15.1213C57.8461 21.0139 54.4203 23.6632 49.8981 23.6632H42.8179V5.4832ZM46.7005 8.77208V20.3287H49.6697C52.182 20.3287 53.8721 18.6842 53.8721 15.03V14.0708C53.8721 10.4165 52.0906 8.77208 49.5326 8.77208H46.7005ZM59.9017 8.95473H63.0078L63.5103 12.3807C64.1041 10.0511 65.6114 8.81768 68.3522 8.81768H69.3113V12.7461H67.7126C64.5608 12.7461 63.7843 13.8423 63.7843 16.9484V23.7089H59.9473V8.95473H59.9017ZM70.088 16.6287V16.2177C70.088 11.2843 73.2397 8.58933 77.5335 8.58933C81.9187 8.58933 84.9791 11.2843 84.9791 16.2177V16.6287C84.9791 21.4707 82.0101 24.0743 77.5335 24.0743C72.783 24.0286 70.088 21.4707 70.088 16.6287ZM81.0507 16.5831V16.2177C81.0507 13.477 79.6804 11.8325 77.4878 11.8325C75.341 11.8325 73.925 13.3399 73.925 16.2177V16.5831C73.925 19.2324 75.2953 20.7398 77.4878 20.7398C79.6804 20.6941 81.0507 19.2324 81.0507 16.5831ZM86.9889 8.95473H90.1861L90.5521 11.7411C91.3286 9.86834 92.9726 8.58933 95.3942 8.58933C99.1395 8.58933 101.606 11.2843 101.606 16.2633V16.6744C101.606 21.5163 98.8657 24.0743 95.3942 24.0743C93.0644 24.0743 91.4658 23.0237 90.6892 21.3336V28.7792H86.9433L86.9889 8.95473ZM97.7239 16.5831V16.2633C97.7239 13.3399 96.2164 11.8782 94.2061 11.8782C92.0589 11.8782 90.6429 13.5226 90.6429 16.2633V16.5373C90.6429 19.1411 92.0135 20.7854 94.1606 20.7854C96.3532 20.7398 97.7239 19.3238 97.7239 16.5831ZM107.269 20.9682L106.95 23.6632H103.661V4.02148H107.407V11.5584C108.229 9.63997 109.874 8.58933 112.204 8.58933C115.72 8.63502 118.324 11.056 118.324 15.9435V16.4003C118.324 21.2879 115.858 24.0743 112.112 24.0743C109.646 24.0286 108.047 22.8867 107.269 20.9682ZM114.396 16.4003V16.0349C114.396 13.3399 112.935 11.8325 110.879 11.8325C108.778 11.8325 107.316 13.5226 107.316 16.0806V16.4003C107.316 19.1411 108.732 20.7398 110.833 20.7398C113.072 20.7398 114.396 19.3238 114.396 16.4003ZM119.969 16.6287V16.2177C119.969 11.2843 123.121 8.58933 127.414 8.58933C131.799 8.58933 134.86 11.2843 134.86 16.2177V16.6287C134.86 21.4707 131.845 24.0743 127.414 24.0743C122.664 24.0286 119.969 21.4707 119.969 16.6287ZM130.978 16.5831V16.2177C130.978 13.477 129.607 11.8325 127.414 11.8325C125.268 11.8325 123.851 13.3399 123.851 16.2177V16.5831C123.851 19.2324 125.222 20.7398 127.414 20.7398C129.607 20.6941 130.978 19.2324 130.978 16.5831ZM139.885 16.0349L134.723 8.95473H139.154L142.123 13.3856L145.138 8.95473H149.523L144.27 15.9892L149.797 23.6632H145.458L142.078 18.7756L138.788 23.6632H134.267L139.885 16.0349Z" fill="#393E46"/>
</g>
</g>
</g>
</g>
<defs>
<clipPath id="clip0_22_548">
<rect width="150" height="30" fill="white" transform="translate(0.609863)"/>
</clipPath>
<clipPath id="clip1_22_548">
<rect width="150" height="30" fill="white" transform="translate(0.609863)"/>
</clipPath>
</defs>
</svg>
