<svg width="137" height="34" viewBox="0 0 137 34" fill="none" xmlns="http://www.w3.org/2000/svg">
<g clip-path="url(#clip0_22_540)">
<mask id="mask0_22_540" style="mask-type:luminance" maskUnits="userSpaceOnUse" x="2" y="0" width="134" height="34">
<path d="M135.085 0.00238037H2.97046V33.0309H135.085V0.00238037Z" fill="white"/>
</mask>
<g mask="url(#mask0_22_540)">
<path d="M30.6995 0.00238037H8.73351C5.68839 0.00238037 3.22046 2.47033 3.22046 5.51544V27.4814C3.22046 30.5266 5.68839 32.9945 8.73351 32.9945H30.6995C33.7446 32.9945 36.2126 30.5266 36.2126 27.4814V5.51544C36.2126 2.47033 33.7446 0.00238037 30.6995 0.00238037ZM30.2152 25.2556C30.2152 26.2176 29.4357 26.9971 28.4738 26.9971H10.9593C9.99734 26.9971 9.21781 26.2176 9.21781 25.2556V7.74123C9.21781 6.77926 9.99734 5.99974 10.9593 5.99974H28.4738C29.4357 5.99974 30.2152 6.77926 30.2152 7.74123V25.2556ZM16.217 20.9765C15.663 20.9765 15.2185 20.5287 15.2185 19.9747V12.9823C15.2185 12.4283 15.663 11.9771 16.217 11.9771H23.2194C23.7701 11.9771 24.2178 12.425 24.2178 12.9823V19.9714C24.2178 20.5254 23.7701 20.9732 23.2194 20.9732H16.217V20.9765ZM44.9598 20.4989H48.5622C48.7414 22.5389 50.1246 24.1311 52.9143 24.1311C55.4055 24.1311 56.938 22.9005 56.938 21.0396C56.938 19.2981 55.7372 18.5185 53.5744 18.0077L50.7814 17.4073C47.7495 16.7472 45.4674 14.7967 45.4674 11.6123C45.4674 8.09947 48.5887 5.69788 52.6423 5.69788C56.9347 5.69788 59.6978 7.95019 59.9366 11.2806H56.4536C56.039 9.72157 54.7454 8.79275 52.6456 8.79275C50.4231 8.79275 48.894 9.99358 48.894 11.5261C48.894 13.0585 50.2141 13.9873 52.4963 14.4982L55.2595 15.0986C58.2914 15.7587 60.3612 17.5897 60.3612 20.8007C60.3612 24.8841 57.2995 27.3155 52.9176 27.3155C47.9917 27.3122 45.2617 24.6419 44.9598 20.4989ZM73.2483 32.9945V27.0203L73.4837 24.3998H73.2483C72.4223 26.2839 70.6874 27.3155 68.3323 27.3155C64.5342 27.3155 61.708 24.224 61.708 19.4838C61.708 14.7437 64.5342 11.6521 68.3323 11.6521C70.6576 11.6521 72.3062 12.7401 73.2483 14.4484H73.4837V11.944H76.6051V32.9945H73.2483ZM73.3644 19.4805C73.3644 16.4486 71.5101 14.6806 69.2411 14.6806C66.9723 14.6806 65.118 16.4486 65.118 19.4805C65.118 22.5124 66.9723 24.2804 69.2411 24.2804C71.5101 24.2804 73.3644 22.5157 73.3644 19.4805ZM79.0963 21.0429V11.944H82.4532V20.7477C82.4532 23.1326 83.601 24.2804 85.515 24.2804C87.8701 24.2804 89.4026 22.6019 89.4026 19.9814V11.944H92.7595V27.017H89.6381V23.8956H89.4026C88.6662 25.8992 87.0474 27.3122 84.5464 27.3122C80.9506 27.3122 79.0963 25.0168 79.0963 21.0429ZM94.8029 22.8076C94.8029 19.9814 96.7766 18.3328 100.28 18.1271L104.428 17.8617V16.6842C104.428 15.271 103.397 14.4186 101.573 14.4186C99.8943 14.4186 98.8929 15.271 98.6275 16.4785H95.2705C95.6255 13.4168 98.1565 11.6488 101.57 11.6488C105.427 11.6488 107.783 13.2974 107.783 16.4785V27.017H104.661V24.2206H104.425C103.719 26.0749 102.246 27.3122 99.4203 27.3122C96.7168 27.3122 94.8029 25.4878 94.8029 22.8076ZM104.432 20.9533V20.1572L101.045 20.3927C99.2213 20.5088 98.3953 21.1888 98.3953 22.5422C98.3953 23.6899 99.3372 24.5158 100.661 24.5158C103.049 24.5158 104.432 22.9867 104.432 20.9533ZM110.287 27.0203V11.944H113.408V14.8299H113.643C114.084 12.8562 115.587 11.944 117.823 11.944H119.355V14.9758H117.442C115.263 14.9758 113.643 16.389 113.643 19.0691V27.017H110.287V27.0203ZM134.714 20.1008H123.26C123.435 22.8673 125.379 24.4297 127.529 24.4297C129.353 24.4297 130.502 23.6932 131.151 22.4559H134.479C133.566 25.5177 130.886 27.3122 127.499 27.3122C123.055 27.3122 119.933 23.9851 119.933 19.4805C119.933 14.9758 123.141 11.6488 127.529 11.6488C131.944 11.6488 134.83 14.6806 134.83 18.4489C134.833 19.1886 134.774 19.5701 134.714 20.1008ZM131.506 17.7755C131.39 15.6857 129.653 14.2726 127.533 14.2726C125.529 14.2726 123.854 15.5397 123.439 17.7755H131.506Z" fill="#393E46"/>
</g>
</g>
<defs>
<clipPath id="clip0_22_540">
<rect width="136" height="34" fill="white" transform="translate(0.949951)"/>
</clipPath>
</defs>
</svg>
