<svg width="111" height="34" viewBox="0 0 111 34" fill="none" xmlns="http://www.w3.org/2000/svg">
<g clip-path="url(#clip0_22_484)">
<g clip-path="url(#clip1_22_484)">
<g clip-path="url(#clip2_22_484)">
<mask id="mask0_22_484" style="mask-type:luminance" maskUnits="userSpaceOnUse" x="1" y="6" width="109" height="22">
<path d="M109.217 6.86963H1.125V27.137H109.217V6.86963Z" fill="white"/>
</mask>
<g mask="url(#mask0_22_484)">
<path d="M14.1568 19.8421L17.2681 25.5368H11.4951L8.86801 20.6701H6.37918V25.5368H1.125V8.286H10.7346C14.7098 8.286 17.2335 10.4923 17.2335 14.46C17.2335 17.013 16.0583 18.842 14.1568 19.8421ZM6.37918 12.7694V16.185H10.1124C11.2186 16.185 11.9099 15.5295 11.9099 14.46C11.9099 13.3904 11.2186 12.7694 10.1124 12.7694H6.37918ZM33.964 26.8118L18.2361 22.5681L22.4532 6.86963L30.3172 8.99147L38.1812 11.1133L33.964 26.8118ZM30.9913 15.2535L26.6012 14.046L25.426 18.4276L29.816 19.6355L30.9913 15.2535ZM56.191 20.6701C56.191 23.9824 54.0825 25.5368 50.7985 25.5368H40.4977V8.286H50.453C53.7366 8.286 55.8451 9.97657 55.8451 12.9437C55.8451 14.8067 55.154 16.0492 53.8404 16.9117C55.3269 17.5651 56.191 18.8765 56.191 20.6701ZM45.6135 12.4262V14.9792H49.0337C49.9669 14.9792 50.5202 14.5652 50.5202 13.6682C50.5202 12.8402 49.9669 12.4262 49.0337 12.4262H45.6135ZM45.6135 21.3965H49.4505C50.3493 21.3965 50.8695 20.9135 50.8695 20.0851C50.8695 19.1884 50.351 18.7744 49.4505 18.7744H45.6135V21.3965ZM58.7836 8.286H64.0366V20.4291H71.5726V25.5368H58.783L58.7836 8.286ZM90.8964 16.9117C90.8964 18.6859 90.3699 20.4202 89.3818 21.8954C88.3943 23.3706 86.9904 24.5202 85.3487 25.1992C83.7063 25.8782 81.8992 26.0559 80.1558 25.7097C78.4123 25.3637 76.8113 24.5093 75.5542 23.2547C74.2972 22.0002 73.4413 20.4018 73.0942 18.6618C72.7476 16.9217 72.9257 15.118 73.606 13.4789C74.2863 11.8398 75.4379 10.4388 76.9162 9.45313C78.3939 8.46745 80.1316 7.94135 81.9094 7.94135C83.0895 7.93901 84.2595 8.16937 85.3512 8.61924C86.4423 9.06909 87.4336 9.72959 88.2691 10.5629C89.1039 11.3961 89.7658 12.3857 90.2166 13.4749C90.6681 14.564 90.8989 15.7314 90.8964 16.9099V16.9117ZM85.6424 16.9117C85.6424 14.7723 83.9485 13.0817 81.9094 13.0817C79.8696 13.0817 78.1758 14.7723 78.1758 16.9117C78.1758 19.0512 79.8696 20.7413 81.9094 20.7413C83.9485 20.7413 85.6424 19.0487 85.6424 16.9099V16.9117ZM103.548 16.6353L109.217 25.5368H102.959L99.8496 20.4632L96.6348 25.5368H90.2745L96.1852 16.842L90.7584 8.286H97.015L99.8839 12.9437L102.65 8.286H108.871L103.548 16.6353Z" fill="#393E46"/>
</g>
</g>
</g>
</g>
<defs>
<clipPath id="clip0_22_484">
<rect width="110" height="34" fill="white" transform="translate(0.330078)"/>
</clipPath>
<clipPath id="clip1_22_484">
<rect width="110" height="34" fill="white" transform="translate(0.330078)"/>
</clipPath>
<clipPath id="clip2_22_484">
<rect width="110" height="21.6185" fill="white" transform="translate(0.330078 6.19073)"/>
</clipPath>
</defs>
</svg>
