<svg width="131" height="40" viewBox="0 0 131 40" fill="none" xmlns="http://www.w3.org/2000/svg">
<g clip-path="url(#clip0_22_492)">
<mask id="mask0_22_492" style="mask-type:luminance" maskUnits="userSpaceOnUse" x="24" y="0" width="84" height="40">
<path d="M107.061 0H24.4805V40H107.061V0Z" fill="white"/>
</mask>
<g mask="url(#mask0_22_492)">
<mask id="mask1_22_492" style="mask-type:luminance" maskUnits="userSpaceOnUse" x="25" y="0" width="82" height="39">
<path d="M106.764 0.00311279H25.0227V38.7128H106.764V0.00311279Z" fill="white"/>
</mask>
<g mask="url(#mask1_22_492)">
<path d="M41.7846 0.00311279L25.0227 9.68053V29.0353L41.7846 38.7128L58.5465 29.0353V9.68053L41.7846 0.00311279ZM31.3633 9.11377L33.7437 10.4386L30.2369 12.5923V28.837L27.7998 27.4343L27.8565 11.2604L31.3633 9.11377ZM32.929 14.1155L36.4359 11.9334L38.8375 13.2653L35.3307 15.4615V31.7701L32.929 30.3814V14.1155ZM34.2255 7.58352L36.7122 6.14537L50.6403 14.2147V18.4157L48.2387 19.8043V15.589L34.2255 7.58352ZM38.0512 16.9988L41.7846 14.9586L45.5181 17.1689V21.3699L41.7846 23.5236L38.0512 21.377V16.9988ZM38.0512 30.5939L40.637 32.0676L41.7421 32.691L41.7846 32.7122L55.7624 24.6501V27.4272L41.7917 35.4965L41.7846 35.5036L38.0512 33.3498V30.5939ZM41.7846 26.74L55.7624 18.6708V21.4408L41.7846 29.5172L38.0512 27.3917V24.5863L41.7846 26.74ZM55.7624 11.2746V15.4544L53.3607 16.843V12.656L39.4397 4.57261L41.7846 3.21947L55.7624 11.2746Z" fill="#393E46"/>
<path d="M63.2079 25.1956C63.1582 25.1956 63.052 25.1602 63.052 25.0398L63.0661 13.5913C63.0661 13.4567 63.2149 13.4567 63.222 13.4567L65.8291 13.4636C65.8504 13.4636 65.8929 13.4707 65.9212 13.4991C65.9496 13.5204 65.9638 13.5558 65.9638 13.5983L65.9496 22.7869L70.4057 22.794C70.4482 22.794 70.4836 22.8082 70.5049 22.8365C70.5332 22.8648 70.5403 22.9074 70.5403 22.9285V25.054C70.5403 25.0611 70.5403 25.2098 70.4057 25.2098L63.2079 25.1956Z" fill="#393E46"/>
<path d="M78.8228 25.2167C78.7803 25.2167 78.7166 25.1529 78.6811 25.0254L78.2703 23.6298L74.48 23.6227L74.0691 25.0112C74.0336 25.1387 73.9699 25.2097 73.9274 25.2097L71.3204 25.2026C71.3204 25.2026 71.2069 25.1955 71.1858 25.0963L74.6642 13.6902C74.6926 13.5911 74.7493 13.4777 74.8059 13.4777L78.0081 13.4848C78.0718 13.4848 78.1215 13.5982 78.1498 13.6973L81.5574 25.1176C81.5433 25.2238 81.4228 25.2238 81.4228 25.2238L78.8228 25.2167ZM75.2451 21.0227H77.5122L76.4071 17.1617L75.2451 21.0227Z" fill="#393E46"/>
<path d="M82.549 25.2241C82.5419 25.2241 82.3931 25.2241 82.3931 25.0894L82.4073 13.6409C82.4073 13.5276 82.5135 13.485 82.5632 13.485L85.1702 13.4921C85.2127 13.4921 85.3048 13.5347 85.3048 13.648L85.2906 25.0965C85.2906 25.2241 85.1561 25.2311 85.1561 25.2311L82.549 25.2241Z" fill="#393E46"/>
<path d="M92.8562 25.238C92.8138 25.238 92.7358 25.1742 92.6366 25.0041L90.4121 20.7534L89.3991 22.2412L89.392 25.1034C89.392 25.2309 89.2574 25.238 89.2574 25.238L86.6503 25.2309C86.6432 25.2309 86.4944 25.2309 86.4944 25.0963L86.5086 13.6478C86.5086 13.5343 86.6148 13.4919 86.6645 13.4919L89.2716 13.499C89.2927 13.499 89.3282 13.5132 89.3565 13.5414C89.3849 13.5698 89.4062 13.6123 89.4062 13.6549L89.3991 17.4238L91.8574 13.7823C91.9282 13.6831 92.0841 13.5132 92.2966 13.5132L95.1375 13.5203C95.1729 13.5203 95.2367 13.5485 95.265 13.6194L92.1054 18.2456L95.7751 25.16C95.7468 25.2521 95.6334 25.2521 95.6263 25.2521L92.8562 25.238Z" fill="#393E46"/>
<path d="M104.022 25.2524C103.979 25.2524 103.916 25.1886 103.88 25.0612L103.469 23.6655L99.6789 23.6584L99.2681 25.047C99.2326 25.1744 99.1689 25.2453 99.1264 25.2453L96.5193 25.2383C96.5193 25.2383 96.4059 25.2312 96.3848 25.132L99.8632 13.7259C99.8916 13.6267 99.9482 13.5134 100.005 13.5134L103.207 13.5205C103.271 13.5205 103.32 13.6338 103.349 13.733L106.756 25.1533C106.742 25.2595 106.622 25.2595 106.622 25.2595L104.022 25.2524ZM100.444 21.0655H102.711L101.606 17.2044L100.444 21.0655Z" fill="#393E46"/>
</g>
</g>
</g>
<defs>
<clipPath id="clip0_22_492">
<rect width="130" height="40" fill="white" transform="translate(0.980469)"/>
</clipPath>
</defs>
</svg>
