<svg width="125" height="34" viewBox="0 0 125 34" fill="none" xmlns="http://www.w3.org/2000/svg">
<g clip-path="url(#clip0_22_535)">
<g clip-path="url(#clip1_22_535)">
<g clip-path="url(#clip2_22_535)">
<path d="M114.322 9.73282V9.76483C113.103 8.8951 111.669 8.37866 110.177 8.27209C108.684 8.16553 107.192 8.47296 105.863 9.16069C104.533 9.84841 103.418 10.8899 102.639 12.1711C101.86 13.4522 101.449 14.9235 101.449 16.4237C101.449 17.924 101.86 19.3953 102.639 20.6764C103.418 21.9575 104.533 22.9991 105.863 23.6868C107.192 24.3746 108.684 24.682 110.177 24.5754C111.669 24.4689 113.103 23.9523 114.322 23.0828V24.596H117.75V7.23282L114.322 9.73282ZM109.601 21.1648C108.673 21.1662 107.765 20.8941 106.99 20.3823C106.215 19.8704 105.607 19.1413 105.242 18.2859C104.876 17.4303 104.77 16.486 104.936 15.5704C105.101 14.6548 105.532 13.8082 106.173 13.1359C106.815 12.4636 107.64 11.9953 108.545 11.7891C109.449 11.583 110.395 11.6481 111.263 11.9763C112.132 12.3047 112.885 12.8817 113.428 13.6357C113.972 14.3897 114.283 15.2874 114.322 16.2171V16.61C114.274 17.8338 113.756 18.9915 112.876 19.8406C111.996 20.6896 110.822 21.1642 109.601 21.1648ZM100.5 24.5932V19.6514L93.7083 24.5932H100.5ZM122.918 3.48718L119.48 5.98428V9.43887L122.916 6.93306L122.918 3.48718ZM119.48 11.5896L119.473 24.5932H122.901L122.916 9.08382L119.48 11.5896Z" fill="#393E46"/>
<path d="M45.4359 8.24854C43.8243 8.24854 42.249 8.72769 40.909 9.62541C39.5689 10.5231 38.5244 11.7992 37.9075 13.2921C37.2905 14.785 37.1288 16.4279 37.4428 18.0131C37.7567 19.5982 38.5323 21.0543 39.6714 22.1975C40.8105 23.3407 42.262 24.1194 43.8425 24.4354C45.4228 24.7514 47.0612 24.5905 48.5505 23.9728C50.0396 23.3551 51.3127 22.3086 52.2088 20.9654C53.105 19.6222 53.584 18.0427 53.5852 16.4267C53.5859 15.3529 53.3756 14.2896 52.9665 13.2975C52.5573 12.3053 51.9571 11.4037 51.2003 10.6442C50.4435 9.88472 49.5449 9.28223 48.5557 8.87117C47.5667 8.46011 46.5065 8.24854 45.4359 8.24854ZM45.4359 21.1648C44.4992 21.1653 43.5834 20.8872 42.8044 20.3656C42.0254 19.844 41.4183 19.1023 41.0599 18.2344C40.7014 17.3666 40.6078 16.4116 40.7908 15.4905C40.9738 14.5692 41.4253 13.7231 42.088 13.0593C42.7508 12.3955 43.595 11.9439 44.5137 11.7615C45.4326 11.5791 46.3848 11.6742 47.2498 12.0347C48.1146 12.3952 48.8534 13.005 49.3726 13.7868C49.8918 14.5686 50.1681 15.4874 50.1665 16.4267C50.1641 17.6836 49.6648 18.8882 48.7779 19.7764C47.8912 20.6647 46.6893 21.1639 45.4359 21.1648ZM27.4134 8.24854C25.9959 8.24964 24.6031 8.62156 23.3726 9.32756C22.1422 10.0336 21.1168 11.0492 20.3974 12.2743C19.6782 13.4992 19.29 14.8912 19.2711 16.3127C19.2524 17.7341 19.6037 19.1359 20.2905 20.3796C20.9773 21.6234 21.9755 22.6658 23.1869 23.4042C24.3982 24.1426 25.7807 24.5514 27.1978 24.5902C28.6149 24.6289 30.0175 24.2962 31.2671 23.625C32.5167 22.9539 33.5703 21.9675 34.3234 20.7632L31.3546 19.046C30.8756 19.77 30.2074 20.348 29.4231 20.7171C28.6387 21.0861 27.7682 21.2319 26.9068 21.1385C26.0454 21.0451 25.2262 20.7162 24.5386 20.1875C23.851 19.6588 23.3216 18.9508 23.0079 18.1409H35.3857C35.6426 16.9487 35.6301 15.714 35.349 14.5273C35.0681 13.3407 34.5257 12.2322 33.7616 11.2832C32.9976 10.3342 32.0313 9.56881 30.934 9.04319C29.8364 8.51755 28.6354 8.24505 27.4193 8.24564L27.4134 8.24854ZM27.4134 11.674C28.3676 11.6748 29.299 11.9648 30.0858 12.506C30.8725 13.0472 31.4776 13.8143 31.8218 14.7066H23.0079C23.0545 14.5805 23.1066 14.4583 23.1647 14.34C23.5528 13.5411 24.157 12.8677 24.9081 12.3963C25.6593 11.925 26.5274 11.6748 27.4134 11.674ZM9.39105 8.24854C7.67608 8.24594 6.00454 8.78907 4.61697 9.79976L3.30811 8.8015C3.18627 8.71117 3.03883 8.66222 2.88729 8.66181H1.18953L1.17212 30.5128H4.59957V23.0419C5.64045 23.7971 6.84463 24.2949 8.11385 24.4945C9.3831 24.694 10.6814 24.5898 11.9028 24.1905C13.1242 23.7911 14.2342 23.1078 15.1421 22.1962C16.05 21.2846 16.7302 20.1707 17.1271 18.9454C17.5239 17.7201 17.6264 16.418 17.4258 15.1454C17.2253 13.8728 16.7276 12.6658 15.9733 11.6229C15.2191 10.5799 14.2297 9.73057 13.0857 9.14414C11.9417 8.55773 10.6758 8.25084 9.39105 8.24854ZM9.39105 21.1648C8.45437 21.1653 7.53857 20.8872 6.7596 20.3656C5.98061 19.844 5.37347 19.1023 5.01501 18.2344C4.65658 17.3666 4.56294 16.4116 4.74594 15.4905C4.92897 14.5692 5.38042 13.7231 6.04317 13.0593C6.70589 12.3955 7.55012 11.9439 8.46899 11.7615C9.38779 11.5791 10.34 11.6742 11.2049 12.0347C12.0698 12.3952 12.8087 13.005 13.3279 13.7868C13.847 14.5686 14.1232 15.4874 14.1216 16.4267C14.12 17.6838 13.621 18.8889 12.734 19.7774C11.847 20.6657 10.6446 21.1648 9.39105 21.1648ZM63.4903 8.24854C61.7851 8.24539 60.1224 8.78215 58.7393 9.7823L57.4421 8.8015C57.3205 8.71079 57.1729 8.66181 57.0212 8.66181H55.3235L55.3061 30.5128H58.7365V23.0681C59.7799 23.8165 60.985 24.3073 62.2532 24.5005C63.5216 24.6936 64.8175 24.5839 66.0356 24.18C67.2536 23.776 68.3593 23.0894 69.2628 22.1761C70.1663 21.2626 70.8419 20.1482 71.2347 18.9235C71.6277 17.6987 71.7266 16.3983 71.5236 15.1279C71.3206 13.8576 70.8215 12.6532 70.0668 11.6129C69.312 10.5726 68.323 9.72566 67.1801 9.14103C66.0374 8.55641 64.773 8.25062 63.4903 8.24854ZM63.4903 21.1648C62.5532 21.167 61.6365 20.8903 60.8564 20.3698C60.0763 19.8492 59.4677 19.1082 59.1081 18.2405C58.7481 17.3728 58.6532 16.4176 58.8353 15.4958C59.0174 14.5741 59.468 13.7271 60.1305 13.0624C60.7929 12.3978 61.6372 11.9453 62.5562 11.7621C63.4752 11.5791 64.4279 11.6736 65.2933 12.0339C66.1587 12.3941 66.8982 13.0039 67.4176 13.7859C67.9373 14.5679 68.2137 15.487 68.212 16.4267C68.2104 17.6823 67.7125 18.8861 66.8274 19.7742C65.9424 20.6625 64.7423 21.1624 63.4903 21.1648ZM94.6479 18.1379C95.0811 16.1501 94.7616 14.0716 93.7513 12.3071C92.741 10.5426 91.1115 9.21826 89.1815 8.59201C87.2508 7.96575 85.1571 8.0824 83.3074 8.9192C81.4578 9.756 79.9849 11.2531 79.1755 13.119C78.366 14.9849 78.2781 17.0861 78.9287 19.0136C79.579 20.941 80.9212 22.5566 82.6946 23.5461C84.468 24.5354 86.5442 24.8277 88.521 24.366C90.4971 23.9043 92.2307 22.7216 93.3856 21.0483L90.6195 19.046C90.141 19.7701 89.4725 20.3482 88.6887 20.7171C87.9042 21.086 87.0338 21.2316 86.1722 21.1379C85.3105 21.0441 84.4918 20.7147 83.805 20.1856C83.1175 19.6566 82.5889 18.9481 82.2757 18.1379H91.0924H94.6479ZM86.6817 11.674C87.6355 11.6748 88.5671 11.9648 89.3532 12.506C90.1402 13.0472 90.7459 13.8143 91.09 14.7066H82.2757C82.3226 14.5805 82.3743 14.4583 82.4323 14.34C82.821 13.5411 83.4251 12.8677 84.1762 12.3963C84.9274 11.925 85.7954 11.6748 86.6817 11.674ZM73.372 3.48718H76.8023V24.5932H73.372V3.48718Z" fill="#393E46"/>
</g>
</g>
</g>
<defs>
<clipPath id="clip0_22_535">
<rect width="124" height="34" fill="white" transform="translate(0.300049)"/>
</clipPath>
<clipPath id="clip1_22_535">
<rect width="124" height="34" fill="white" transform="translate(0.300049)"/>
</clipPath>
<clipPath id="clip2_22_535">
<rect width="124" height="27.0256" fill="white" transform="translate(0.300049 3.48718)"/>
</clipPath>
</defs>
</svg>
