<svg width="125" height="34" viewBox="0 0 125 34" fill="none" xmlns="http://www.w3.org/2000/svg">
<g clip-path="url(#clip0_22_509)">
<g clip-path="url(#clip1_22_509)">
<g clip-path="url(#clip2_22_509)">
<mask id="mask0_22_509" style="mask-type:luminance" maskUnits="userSpaceOnUse" x="1" y="0" width="123" height="34">
<path d="M123.608 0H1.20801V34H123.608V0Z" fill="white"/>
</mask>
<g mask="url(#mask0_22_509)">
<mask id="mask1_22_509" style="mask-type:luminance" maskUnits="userSpaceOnUse" x="1" y="0" width="122" height="33">
<path d="M122.376 0.00341797H1.92676V32.6434H122.376V0.00341797Z" fill="white"/>
</mask>
<g mask="url(#mask1_22_509)">
<path d="M26.5261 3.02848L26.2873 3.26731C25.8097 3.66537 25.1728 3.82458 24.6155 3.58575L22.8641 2.86926C22.3069 2.63043 21.9088 2.07317 21.9088 1.43629V1.03824C21.9088 0.401364 21.3515 -0.0762939 20.7943 -0.0762939H15.938C15.3012 -0.0762939 14.8235 0.401364 14.8235 1.03824V1.43629C14.8235 2.07317 14.4255 2.63043 13.8682 2.86926L12.1168 3.58575C11.5595 3.82458 10.8431 3.66537 10.445 3.26731L10.2062 3.02848C9.72851 2.63043 9.09164 2.63043 8.61398 3.02848L5.03155 6.45171C4.63349 6.84975 4.55389 7.56624 5.03155 8.0439L5.27038 8.28273C5.66842 8.76039 5.82764 9.39726 5.58881 9.95454L4.87232 11.706C4.63349 12.2633 4.07623 12.6613 3.43934 12.6613H3.0413C2.40442 12.6613 1.92676 13.2186 1.92676 13.7758V18.632C1.92676 19.2689 2.40442 19.7466 3.0413 19.7466H3.43934C4.07623 19.7466 4.63349 20.1446 4.87232 20.7019L5.58881 22.4533C5.82764 23.0106 5.66842 23.7271 5.27038 24.1252L5.03155 24.364C4.63349 24.8416 4.63349 25.4785 5.03155 25.9561L8.45476 29.3794C8.85281 29.7774 9.5693 29.857 10.0469 29.3794L10.2858 29.1406C10.7634 28.7425 11.4003 28.5832 11.9576 28.822L13.709 29.5386C14.2662 29.7774 14.6643 30.3346 14.6643 30.9715V31.3696C14.6643 32.0065 15.2215 32.4841 15.7789 32.4841H20.635C21.2719 32.4841 21.7495 32.0065 21.7495 31.3696V30.9715C21.7495 30.3346 22.1476 29.7774 22.7049 29.5386L24.4563 28.822C25.0135 28.5832 25.73 28.7425 26.1281 29.1406L26.3669 29.3794C26.8446 29.7774 27.4815 29.7774 27.9592 29.3794L29.0737 28.2649L22.8641 22.0552C22.068 21.2592 20.2369 19.4281 17.8486 21.8164C17.1322 22.5329 16.6546 23.4883 15.938 24.2047C14.2662 25.8766 12.276 25.0804 11.4799 23.4883C11.0023 22.5329 11.1615 22.4533 10.6838 21.5776C10.1266 20.7019 9.17125 20.065 8.85281 18.9505C8.61398 17.836 9.17125 17.5175 9.17125 16.9603C9.17125 16.4029 8.61398 15.766 8.77321 14.97C8.85281 14.3332 9.33047 13.9351 9.41008 13.6166C9.48968 13.2982 9.48968 13.0594 9.5693 12.5817C9.88774 11.1487 11.2411 10.4322 12.4352 11.2283C13.2313 11.7856 14.9827 13.6963 15.2215 13.4574C15.4604 13.2186 13.5498 11.4672 12.9925 10.6711C12.1964 9.47688 12.9129 8.0439 14.3459 7.80507C14.8235 7.72546 15.142 7.72546 15.3808 7.64586C15.6992 7.48663 16.0177 7.08858 16.7341 7.00897C17.5303 6.84975 18.2467 7.40703 18.7244 7.40703C19.2817 7.40703 19.6798 6.84975 20.7146 7.08858C21.8292 7.32741 22.466 8.36234 23.3418 8.9196C24.2175 9.47688 24.2175 9.31766 25.2524 9.71571C26.8446 10.5118 27.7203 12.5021 25.9689 14.1739C25.2524 14.8903 24.2971 15.2884 23.5806 16.0846C21.1923 18.4729 23.1029 20.3038 23.8195 21.1L30.0289 27.3095L31.1435 26.1949C31.5415 25.7969 31.6212 25.0804 31.1435 24.6028L30.9046 24.364C30.5066 23.8863 30.3475 23.2494 30.5863 22.6921L31.3027 20.9407C31.5415 20.3835 32.0989 19.9854 32.7358 19.9854H33.1338C33.7706 19.9854 34.2483 19.4281 34.2483 18.8709V14.0146C34.2483 13.3778 33.7706 12.9001 33.1338 12.9001H32.7358C32.0989 12.9001 31.5415 12.5021 31.3027 11.9448L30.5863 10.1934C30.3475 9.63609 30.5066 8.91961 30.9046 8.52156L31.1435 8.28273C31.5415 7.80507 31.5415 7.1682 31.1435 6.69054L27.7203 3.26731C27.6406 2.63043 26.9242 2.63043 26.5261 3.02848Z" fill="#393E46"/>
<path d="M41.2539 9.07877C41.2539 5.81477 43.7217 3.58569 46.9062 3.58569C48.8964 3.58569 50.3293 4.54101 51.205 5.65555L49.5333 6.69047C48.976 5.89438 48.0207 5.41672 46.9062 5.41672C44.8363 5.41672 43.3237 6.9293 43.3237 9.07877C43.3237 11.1486 44.8363 12.7408 46.9062 12.7408C48.0207 12.7408 48.8167 12.2632 49.2945 11.8651V10.3525H46.5081V8.60111H51.4438V12.6612C50.3293 13.8554 48.8167 14.5718 46.9857 14.5718C43.7217 14.5718 41.2539 12.3428 41.2539 9.07877Z" fill="#393E46"/>
<path d="M55.7427 3.82458H53.6729V14.333H55.7427V3.82458Z" fill="#393E46"/>
<path d="M65.8535 14.3329L60.44 7.0088V14.3329H58.3701V3.8244H60.5993L65.933 10.9097V3.8244H68.003V14.3329H65.8535Z" fill="#393E46"/>
<path d="M77.1583 14.333L73.576 9.95455L72.7003 10.9894V14.333H70.5508V3.82458H72.7003V8.60118L76.84 3.82458H79.3875L74.9293 8.7604L79.7059 14.333H77.1583Z" fill="#393E46"/>
<path d="M79.7051 9.0789C79.7051 5.8149 82.173 3.58582 85.3574 3.58582C87.3476 3.58582 88.7805 4.54114 89.6563 5.65568L87.9845 6.6906C87.4272 5.89451 86.4719 5.41685 85.3574 5.41685C83.2875 5.41685 81.7749 6.92943 81.7749 9.0789C81.7749 11.1487 83.2875 12.7409 85.3574 12.7409C86.4719 12.7409 87.268 12.2633 87.7457 11.8652V10.3526H84.8797V8.60124H89.8155V12.6613C88.701 13.8555 87.1884 14.5719 85.3574 14.5719C82.2525 14.5719 79.7051 12.3429 79.7051 9.0789Z" fill="#393E46"/>
<path d="M100.563 9.07877C100.563 7.00892 99.2099 5.41672 97.14 5.41672C95.0702 5.41672 93.7169 7.00892 93.7169 9.07877C93.7169 11.1486 95.0702 12.7408 97.14 12.7408C99.2099 12.7408 100.563 11.1486 100.563 9.07877ZM91.5674 9.07877C91.5674 5.97398 93.7964 3.58569 97.14 3.58569C100.484 3.58569 102.713 5.89438 102.713 9.07877C102.713 12.2632 100.484 14.5718 97.14 14.5718C93.7964 14.5718 91.5674 12.1836 91.5674 9.07877Z" fill="#393E46"/>
<path d="M48.7375 25.8764C48.7375 24.8414 48.0211 23.8861 46.5085 23.8861H43.0057V27.8666H46.5085C47.9415 27.8666 48.7375 27.1501 48.7375 25.8764ZM48.4987 21.0998C48.4987 19.9853 47.7823 19.2688 46.4289 19.2688H43.0057V23.0104H46.4289C47.7823 23.0104 48.4987 22.1347 48.4987 21.0998ZM41.9707 28.8219V18.3134H46.5085C48.3395 18.3134 49.6132 19.3484 49.6132 21.0202C49.6132 22.2939 48.7375 23.1697 47.7823 23.4085C48.8968 23.7269 49.7725 24.7618 49.7725 25.9559C49.7725 27.7073 48.5784 28.8219 46.5881 28.8219H41.9707Z" fill="#393E46"/>
<path d="M53.3551 18.3134H52.3203V28.8219H53.3551V18.3134Z" fill="#393E46"/>
<path d="M65.5346 23.5678C65.5346 20.9407 63.8629 19.03 61.3153 19.03C58.6882 19.03 57.096 20.9407 57.096 23.5678C57.096 26.1152 58.7678 28.1054 61.3153 28.1054C63.8629 28.1054 65.5346 26.1949 65.5346 23.5678ZM55.9814 23.5678C55.9814 20.4629 58.0513 18.0746 61.3153 18.0746C64.5793 18.0746 66.6492 20.4629 66.6492 23.5678C66.6492 26.593 64.5793 29.0608 61.3153 29.0608C58.0513 29.0608 55.9814 26.6725 55.9814 23.5678Z" fill="#393E46"/>
<path d="M76.8395 28.822L74.2124 19.9854L71.5852 28.822H70.4707L67.366 18.3135H68.4805L71.1076 27.3095L73.7347 18.3135H74.69L77.3171 27.3095L79.9443 18.3135H81.0589L77.954 28.822H76.8395Z" fill="#393E46"/>
<path d="M91.4076 23.5678C91.4076 20.9407 89.7358 19.03 87.1883 19.03C84.5611 19.03 82.969 20.9407 82.969 23.5678C82.969 26.1152 84.6408 28.1054 87.1883 28.1054C89.7358 28.1054 91.4076 26.1949 91.4076 23.5678ZM81.8545 23.5678C81.8545 20.4629 83.9243 18.0746 87.1883 18.0746C90.4523 18.0746 92.5222 20.4629 92.5222 23.5678C92.5222 26.593 90.4523 29.0608 87.1883 29.0608C83.9243 29.0608 81.8545 26.6725 81.8545 23.5678Z" fill="#393E46"/>
<path d="M101.518 21.4183C101.518 20.1446 100.643 19.2689 99.2098 19.2689H96.1846V23.6474H99.2098C100.722 23.6474 101.518 22.692 101.518 21.4183ZM101.439 28.822L98.4137 24.5231H96.1051V28.822H95.0701V18.3135H99.2098C101.359 18.3135 102.553 19.6668 102.553 21.4183C102.553 23.1698 101.359 24.4434 99.5282 24.5231L102.713 28.822H101.439Z" fill="#393E46"/>
<path d="M111.947 28.8219L107.489 23.9657L106.295 25.1599V28.8219H105.26V18.3134H106.295V23.9657L111.47 18.3134H112.823L108.126 23.3288L113.301 28.8219H111.947Z" fill="#393E46"/>
<path d="M114.415 27.389L115.052 26.6724C115.689 27.4686 116.963 28.185 118.475 28.185C120.545 28.185 121.341 27.1502 121.341 26.1152C121.341 23.0901 114.734 24.7619 114.734 21.0203C114.734 19.2687 116.326 18.1542 118.396 18.1542C120.068 18.1542 121.262 18.7115 122.137 19.6668L121.5 20.3834C120.704 19.428 119.59 19.0299 118.316 19.0299C116.883 19.0299 115.769 19.8261 115.769 20.9406C115.769 23.5677 122.376 22.0551 122.376 26.0357C122.376 27.7074 121.182 29.0607 118.396 29.0607C116.644 29.0607 115.211 28.3443 114.415 27.389Z" fill="#393E46"/>
</g>
</g>
</g>
</g>
</g>
<defs>
<clipPath id="clip0_22_509">
<rect width="124" height="34" fill="white" transform="translate(0.639648)"/>
</clipPath>
<clipPath id="clip1_22_509">
<rect width="124" height="34" fill="white" transform="translate(0.639648)"/>
</clipPath>
<clipPath id="clip2_22_509">
<rect width="123" height="34" fill="white" transform="translate(1.13965)"/>
</clipPath>
</defs>
</svg>
