<svg width="64" height="64" viewBox="0 0 64 64" fill="none" xmlns="http://www.w3.org/2000/svg">
<g clip-path="url(#clip0_22_808)">
<path d="M59.0877 0.653076H4.91234C2.5638 0.653076 0.653076 2.56374 0.653076 4.91228V59.0877C0.653076 61.4362 2.5638 63.347 4.91234 63.347H59.0877C61.4362 63.347 63.347 61.4362 63.347 59.0877V4.91228C63.347 2.56374 61.4362 0.653076 59.0877 0.653076ZM59.0877 62.0408H4.91234C3.2838 62.0408 1.9592 60.7162 1.9592 59.0877V13.2395H6.26562V11.9333H1.9592V4.91228C1.9592 3.28374 3.2838 1.95913 4.91234 1.95913H59.0877C60.7162 1.95913 62.0408 3.28374 62.0408 4.91228V11.9333H9.95887V13.2395H62.0408V59.0877C62.0408 60.7162 60.7162 62.0408 59.0877 62.0408Z" fill="#4787FF"/>
<path d="M5.87766 40.9691H4.57153V44.5355H5.87766V40.9691Z" fill="#4787FF"/>
<path d="M5.87766 55.3304V47.4937H4.57153V55.3304C4.57153 57.5902 6.40984 59.4286 8.66975 59.4286H12.5521V58.1225H8.66975C7.13023 58.1225 5.87766 56.8699 5.87766 55.3304Z" fill="#4787FF"/>
<path d="M17.9044 58.1224H14.4236V59.4286H17.9044V58.1224Z" fill="#4787FF"/>
<path d="M56.7402 9.88488C58.3607 9.88488 59.6789 8.56661 59.6789 6.9461C59.6789 5.32559 58.3607 4.00732 56.7402 4.00732C55.1197 4.00732 53.8014 5.32559 53.8014 6.9461C53.8014 8.56661 55.1197 9.88488 56.7402 9.88488ZM56.7402 5.31345C57.6403 5.31345 58.3728 6.04592 58.3728 6.9461C58.3728 7.84628 57.6403 8.57875 56.7402 8.57875C55.84 8.57875 55.1075 7.84628 55.1075 6.9461C55.1075 6.04592 55.84 5.31345 56.7402 5.31345ZM49.4178 9.88488C51.0383 9.88488 52.3566 8.56661 52.3566 6.9461C52.3566 5.32559 51.0383 4.00732 49.4178 4.00732C47.7973 4.00732 46.479 5.32559 46.479 6.9461C46.479 8.56661 47.7973 9.88488 49.4178 9.88488ZM49.4178 5.31345C50.318 5.31345 51.0504 6.04592 51.0504 6.9461C51.0504 7.84628 50.318 8.57875 49.4178 8.57875C48.5176 8.57875 47.7851 7.84628 47.7851 6.9461C47.7851 6.04592 48.5176 5.31345 49.4178 5.31345ZM42.0957 9.88488C43.7162 9.88488 45.0345 8.56661 45.0345 6.9461C45.0345 5.32559 43.7162 4.00732 42.0957 4.00732C40.4752 4.00732 39.157 5.32559 39.157 6.9461C39.157 8.56661 40.4752 9.88488 42.0957 9.88488ZM42.0957 5.31345C42.9959 5.31345 43.7284 6.04592 43.7284 6.9461C43.7284 7.84628 42.9959 8.57875 42.0957 8.57875C41.1955 8.57875 40.4631 7.84628 40.4631 6.9461C40.4631 6.04592 41.1955 5.31345 42.0957 5.31345ZM37.6435 51.2831L37.2669 51.3973L36.3578 56.0771H30.2395L29.3303 51.3973L28.9537 51.2831C28.0168 50.9993 27.109 50.6215 26.2554 50.1604L25.9075 49.9726L21.949 52.6448L17.6206 48.3167L20.2931 44.3582L20.1053 44.0103C19.6445 43.1567 19.2666 42.2488 18.9822 41.3116L18.868 40.9353L14.1882 40.0262V33.9075L18.868 32.9984L18.9822 32.6221C19.2647 31.6907 19.6417 30.7819 20.1021 29.9213L20.2877 29.5743L17.6206 25.6173L21.949 21.2889L25.9031 23.9566L26.251 23.7688C27.1008 23.3097 28.0102 22.9321 28.9538 22.6461L29.3304 22.5319L30.2392 17.8565H36.3578L37.2669 22.5319L37.6435 22.6461C38.5864 22.9318 39.4959 23.3097 40.3464 23.7688L40.6943 23.9566L44.6483 21.2889L48.9764 25.617L46.3087 29.5711L46.4965 29.919C46.9557 30.7691 47.3333 31.6785 47.6193 32.6218L47.7334 32.9984L52.4088 33.9075V40.0261L47.7334 40.9353L47.6193 41.3119C47.339 42.2369 46.9608 43.147 46.4952 44.0169L47.647 44.633C48.0893 43.8062 48.4595 42.9452 48.7497 42.0683L53.7149 41.1028V32.8311L48.7497 31.8655C48.4975 31.1012 48.1894 30.3592 47.8304 29.6513L50.6614 25.4552L44.8103 19.6041L40.6142 22.4351C39.9059 22.076 39.1639 21.7677 38.3999 21.5158L37.4344 16.5505H29.1627L28.1975 21.5158C27.4328 21.768 26.6908 22.076 25.9832 22.4351L21.7871 19.6041L15.9357 25.4548L18.7679 29.6567C18.4089 30.3691 18.1018 31.1092 17.8518 31.8655L12.8821 32.8311V41.1028L17.8521 42.0683C18.1034 42.8286 18.4114 43.569 18.7715 44.2782L15.9357 48.4787L21.7871 54.3298L25.9876 51.4943C26.6968 51.8547 27.4372 52.1624 28.1975 52.4137L29.1627 57.3834H37.4344L38.3999 52.4137C39.2806 52.1229 40.1401 51.7542 40.9602 51.3155L40.3441 50.1637C39.4828 50.6243 38.574 51.0013 37.6435 51.2831Z" fill="#4787FF"/>
<path d="M45.0736 42.1416C45.7926 40.5074 46.1571 38.7666 46.1571 36.9669C46.1571 29.8766 40.3886 24.1082 33.2984 24.1082C26.2082 24.1082 20.4397 29.8766 20.4397 36.9669C20.4397 44.0571 26.2082 49.8256 33.2984 49.8256C35.2955 49.8256 37.2095 49.3801 38.9868 48.5019L38.4084 47.3309C36.8125 48.1195 35.093 48.5194 33.2984 48.5194C26.9282 48.5194 21.7458 43.337 21.7458 36.9668C21.7458 30.5966 26.9282 25.4142 33.2984 25.4142C39.6686 25.4142 44.851 30.5966 44.851 36.9668C44.851 38.5842 44.5235 40.1483 43.8778 41.6154L45.0736 42.1416Z" fill="#4787FF"/>
<path d="M40.6972 39.3371C41.6062 36.5902 40.978 33.4418 38.7967 31.2603C37.3056 29.7692 35.3254 28.9481 33.2214 28.9481C32.1614 28.9481 31.5185 29.1476 30.5725 29.3014L34.6209 33.3499L34.4761 38.1101L29.7184 38.253L25.6674 34.2017C25.6759 34.6401 24.0817 38.8878 27.626 42.431C29.8014 44.6068 32.9231 45.2613 35.7071 44.3364L47.9586 56.5876C49.3381 57.9677 51.5727 57.9681 52.9531 56.5876C54.33 55.2106 54.33 52.9702 52.9531 51.593L40.6972 39.3371ZM28.5495 41.5074C27.34 40.2979 26.6611 38.6799 26.6219 37.0032L29.1936 39.5756L35.744 39.3786L35.9437 32.8256L33.3742 30.2561C35.0722 30.2943 36.6647 30.9755 37.8732 32.1837C40.4433 34.7542 40.4433 38.9369 37.8732 41.5074C35.2964 44.0841 31.1264 44.0842 28.5495 41.5074ZM52.0298 55.6639C51.1886 56.5045 49.7227 56.5045 48.8821 55.6639L36.9966 43.7787C37.649 43.4212 38.2559 42.9716 38.7967 42.4308C39.3433 41.8841 39.7881 41.2744 40.1407 40.6275L52.0298 52.5163C52.8974 53.3843 52.8974 54.7963 52.0298 55.6639Z" fill="#4787FF"/>
<path d="M50.1394 54.9094C50.7663 54.9094 51.2744 54.4013 51.2744 53.7744C51.2744 53.1476 50.7663 52.6394 50.1394 52.6394C49.5126 52.6394 49.0044 53.1476 49.0044 53.7744C49.0044 54.4013 49.5126 54.9094 50.1394 54.9094Z" fill="#4787FF"/>
<path d="M41.7266 46.2647L45.7561 50.2943L46.6797 49.3708L42.6502 45.3412L41.7266 46.2647Z" fill="#4787FF"/>
<path d="M41.0542 43.745L40.1306 44.6686L40.9129 45.4508L41.8364 44.5272L41.0542 43.745Z" fill="#4787FF"/>
<path d="M58.7815 28.0411H57.4753V46.7102H58.7815V28.0411Z" fill="#4787FF"/>
<path d="M58.7815 22.7905H57.4753V25.1004H58.7815V22.7905Z" fill="#4787FF"/>
<path d="M28.9828 6.29285H25.2649V7.59897H28.9828V6.29285Z" fill="#4787FF"/>
<path d="M22.8055 6.29285H6.26538V7.59897H22.8055V6.29285Z" fill="#4787FF"/>
</g>
<defs>
<clipPath id="clip0_22_808">
<rect width="64" height="64" fill="white"/>
</clipPath>
</defs>
</svg>
