<svg width="23" height="23" viewBox="0 0 23 23" fill="none" xmlns="http://www.w3.org/2000/svg">
<g clip-path="url(#clip0_22_1100)">
<path d="M20.3271 15.9577C20.3271 18.8612 16.2408 21.1743 11.1328 21.1743C6.02483 21.1743 1.93848 18.8708 1.93848 15.9577V11.98C2.43905 14.6027 6.40282 16.8191 11.1328 16.8191C15.8627 16.8191 19.8265 14.6027 20.3271 11.98V15.9577Z" fill="#444444"/>
<path d="M20.3271 6.32908V8.30787C20.3271 11.276 16.2408 13.8188 11.1328 13.8188C6.02483 13.8188 1.93848 11.276 1.93848 8.30787V6.32908C1.93848 3.3609 6.02483 0.946777 11.1328 0.946777C16.2408 0.946777 20.3271 3.3609 20.3271 6.32908Z" fill="#444444"/>
</g>
<defs>
<clipPath id="clip0_22_1100">
<rect width="22.0663" height="22.0663" fill="white" transform="translate(0.0996094 0.0273438)"/>
</clipPath>
</defs>
</svg>
