<svg width="23" height="23" viewBox="0 0 23 23" fill="none" xmlns="http://www.w3.org/2000/svg">
<g clip-path="url(#clip0_22_1081)">
<path d="M4.69676 1.07471H1.01904C0.511514 1.07471 0.0996094 1.48661 0.0996094 1.99414V20.3827C0.0996094 20.8903 0.511514 21.3022 1.01904 21.3022H4.69676V1.07471Z" fill="#444444"/>
<path d="M6.53564 1.07471V21.3022H21.2465C21.7541 21.3022 22.166 20.8903 22.166 20.3827V1.99414C22.166 1.48661 21.7541 1.07471 21.2465 1.07471H6.53564ZM10.2134 4.75243H12.9717V6.59129H10.2134V4.75243ZM12.9717 17.6245H10.2134V15.7856H12.9717V17.6245ZM15.7299 13.9467H12.0522V12.1079H15.7299V13.9467ZM18.4882 10.269H12.9717V8.43015H18.4882V10.269Z" fill="#444444"/>
</g>
<defs>
<clipPath id="clip0_22_1081">
<rect width="22.0663" height="22.0663" fill="white" transform="translate(0.0996094 0.155029)"/>
</clipPath>
</defs>
</svg>
