<svg width="19" height="18" viewBox="0 0 19 18" fill="none" xmlns="http://www.w3.org/2000/svg">
<path fill-rule="evenodd" clip-rule="evenodd" d="M16.3799 18C17.7609 18 18.8799 16.881 18.8799 15.5V2.5C18.8799 1.119 17.7609 0 16.3799 0H3.37988C1.99939 0 0.879883 1.119 0.879883 2.5V15.5C0.879883 16.881 1.99939 18 3.37988 18H16.3799ZM6.37986 6.50003H3.87988V15H6.37986V6.50003ZM5.10838 5.49997H5.12239C5.89738 5.49997 6.37986 4.94348 6.37986 4.2495C6.36591 3.54 5.89738 3 5.13688 3C4.37738 3 3.87988 3.54 3.87988 4.2495C3.87988 4.944 4.36238 5.49997 5.10838 5.49997ZM13.3799 15H15.8799L15.8794 10.137C15.8794 7.62503 14.5379 6.50003 12.7489 6.50003C11.3049 6.50003 10.7404 7.25002 10.3799 7.80802V6.50003H7.87986V15H10.3799V10.5C10.3799 10.4583 10.3792 10.4095 10.3786 10.3566C10.3753 10.0993 10.3707 9.74167 10.4304 9.59647C10.6274 9.10747 11.0334 8.60153 11.7839 8.60153C12.7674 8.60153 13.3799 9.35153 13.3799 10.4505V15Z" fill="#8EB5FB"/>
</svg>
