<svg width="32" height="32" viewBox="0 0 32 32" fill="none" xmlns="http://www.w3.org/2000/svg">
<path d="M26.9738 14.7714C26.9359 14.6111 26.8591 14.4626 26.75 14.3392C26.641 14.2158 26.5032 14.1212 26.3488 14.0639L19.1475 11.3626L20.98 2.19637C21.0215 1.98339 20.9926 1.7627 20.8977 1.56759C20.8028 1.37249 20.6469 1.21355 20.4538 1.11477C20.2606 1.01599 20.0405 0.982721 19.8267 1.01999C19.613 1.05726 19.4172 1.16304 19.2688 1.32137L5.26879 16.3214C5.15508 16.4412 5.07283 16.5873 5.02937 16.7467C4.98591 16.906 4.98261 17.0737 5.01975 17.2346C5.05689 17.3956 5.13332 17.5448 5.24222 17.669C5.35111 17.7932 5.48908 17.8885 5.64379 17.9464L12.8475 20.6476L11.02 29.8039C10.9785 30.0168 11.0074 30.2375 11.1024 30.4326C11.1973 30.6277 11.3531 30.7867 11.5463 30.8855C11.7395 30.9842 11.9596 31.0175 12.1733 30.9802C12.3871 30.943 12.5829 30.8372 12.7313 30.6789L26.7313 15.6789C26.8429 15.559 26.9234 15.4136 26.9657 15.2554C27.008 15.0971 27.0108 14.9309 26.9738 14.7714ZM13.6713 26.7501L14.98 20.2026C15.0269 19.9704 14.9898 19.7291 14.8753 19.5217C14.7608 19.3143 14.5765 19.1543 14.355 19.0701L7.75004 16.5889L18.3275 5.25637L17.02 11.8039C16.9732 12.0361 17.0103 12.2774 17.1248 12.4848C17.2392 12.6922 17.4236 12.8522 17.645 12.9364L24.245 15.4114L13.6713 26.7501Z" fill="#00FF85"/>
</svg>
