<svg width="32" height="32" viewBox="0 0 32 32" fill="none" xmlns="http://www.w3.org/2000/svg">
<path d="M18.7012 10.7139L7.50115 21.7139C7.31412 21.8978 7.06226 22.0009 6.79991 22.0009C6.53755 22.0009 6.2857 21.8978 6.09866 21.7139L1.29866 17.0001C1.20501 16.908 1.13041 16.7984 1.07913 16.6775C1.02785 16.5566 1.00089 16.4267 0.999791 16.2954C0.998688 16.164 1.02347 16.0338 1.07271 15.912C1.12195 15.7903 1.19469 15.6794 1.28678 15.5857C1.37887 15.4921 1.4885 15.4175 1.60942 15.3662C1.73034 15.3149 1.86017 15.288 1.99151 15.2869C2.12285 15.2858 2.25311 15.3105 2.37487 15.3598C2.49664 15.409 2.60751 15.4818 2.70116 15.5739L6.79991 19.5989L17.2999 9.28636C17.4892 9.10038 17.7446 8.99721 18.01 8.99955C18.1414 9.00071 18.2713 9.02774 18.3922 9.0791C18.5132 9.13045 18.6228 9.20513 18.7149 9.29886C18.807 9.39259 18.8797 9.50354 18.9289 9.62538C18.9781 9.74722 19.0029 9.87755 19.0017 10.0089C19.0005 10.1403 18.9735 10.2702 18.9222 10.3912C18.8708 10.5121 18.7961 10.6218 18.7024 10.7139H18.7012ZM30.7137 9.29886C30.6216 9.20506 30.512 9.13032 30.391 9.07892C30.2701 9.02752 30.1402 9.00047 30.0087 8.99931C29.8773 8.99815 29.747 9.0229 29.6251 9.07215C29.5033 9.12141 29.3923 9.1942 29.2987 9.28636L18.7987 19.5989L16.4449 17.2864C16.2556 17.1005 16.0002 16.9975 15.735 17C15.4698 17.0025 15.2163 17.1102 15.0305 17.2995C14.8447 17.4888 14.7417 17.7441 14.7442 18.0094C14.7466 18.2746 14.8544 18.528 15.0437 18.7139L18.0974 21.7139C18.2844 21.8978 18.5363 22.0009 18.7987 22.0009C19.061 22.0009 19.3129 21.8978 19.4999 21.7139L30.6999 10.7139C30.7938 10.6219 30.8686 10.5123 30.9201 10.3914C30.9716 10.2705 30.9988 10.1406 31.0001 10.0092C31.0014 9.87779 30.9767 9.74741 30.9276 9.62552C30.8784 9.50364 30.8057 9.39263 30.7137 9.29886Z" fill="#00FF85"/>
</svg>
